<svg height="50" id="Layer_1" version="1.1" viewBox="0 0 48 48" width="50" x="0" xml:space="preserve" xmlns="http://www.w3.org/2000/svg" y="0">
  <!-- diamond fill -->
  <polygon points="24 2 2 23.9 24 45.7 46 23.9" clip-rule="evenodd" fill="#fff" fill-rule="evenodd"/>
  <!-- diamond border -->
  <path d="M24 47.4L1 24.2 24 1.4l23 23.4-23 22.6zM3.9 24.7L24 45l21-20.2L24 3.9 3.9 24.7z"/>

		<!-- cup -->
		<path d="M301.001,142.002h-250c-13.785,0-25,11.215-25,25c0,10.527,6.543,19.548,15.773,23.228l29.277,292.767
			c1.68,16.807,14.275,29.006,29.95,29.006h150c15.673,0,28.268-12.198,29.949-29.005l29.278-292.768
			c9.23-3.68,15.773-12.701,15.773-23.228C326.001,153.217,314.787,142.002,301.001,142.002z M288.072,210.797h-31.985
			c-5.523,0-10,4.477-10,10s4.477,10,10,10h29.984L261.05,481.006c-0.53,5.296-3.9,10.996-10.049,10.996h-150
			c-6.149,0-9.52-5.699-10.049-10.995l-0.592-5.924h29.985c5.523,0,10-4.477,10-10s-4.477-10-10-10H88.36L62.051,192.002h227.9
			L288.072,210.797z M301.001,172.002h-250c-2.71,0-5-2.29-5-5c0-2.71,2.29-5,5-5h250c2.71,0,5,2.29,5,5
			C306.001,169.712,303.711,172.002,301.001,172.002z"/>

  <!-- thunderbolt border -->
  <polygon points="39 5.3 13 20.3 12 20.8 12 22 12 27 12 29 13.4 29 6.6 35.6 6 36.1 6 37 6 42 6 45.6 9.1 43.7 36.1 26.7 37 26.1 37 25 37 20 37 18.5 35.5 18.1 35.3 18 41.4 12 42 11.4 42 10.6 42 7 42 3.6"/>
  <!-- thunderbolt light fill -->
  <polygon points="40 7 14 22 14 27 18.4 27 8 37 8 42 35 25 35 20 31.5 19 40 10.6" clip-rule="evenodd" fill="#ffcc80" fill-rule="evenodd"/>
  <!-- thunderbolt dark fill -->
  <g clip-rule="evenodd" fill="#fb8c00" fill-rule="evenodd">
    <polygon points="31.5 19 28 18 40 7 40 10.6"/>
    <polygon points="14 27 14 22 23 22 18.4 27"/>
    <polygon points="8 42 8 37 35 20 35 25"/>
  </g>
</svg>
